<svg width="20" height="20" viewBox="0 0 20 20" xmlns="http://www.w3.org/2000/svg">
<path d="M10 19.8255C4.5 19.8255 0 15.3255 0 9.82548C0 5.12548 3.4 0.925483 8 0.0254834C8.4 -0.0745166 8.9 0.125483 9.1 0.525483C9.3 0.925483 9.2 1.42548 8.9 1.72548C7.7 2.92548 7 4.62548 7 6.32548C7 9.92548 9.9 12.8255 13.5 12.8255C15.2 12.8255 16.9 12.1255 18.1 10.9255C18.4 10.6255 18.9 10.5255 19.3 10.7255C19.7 10.9255 19.9 11.3255 19.8 11.8255C18.9 16.4255 14.7 19.8255 10 19.8255ZM5.6 3.12548C3.4 4.62548 2 7.02548 2 9.82548C2 14.2255 5.6 17.8255 10 17.8255C12.8 17.8255 15.2 16.4255 16.7 14.2255C15.7 14.6255 14.6 14.8255 13.5 14.8255C8.8 14.8255 5 11.0255 5 6.32548C5 5.22548 5.2 4.12548 5.6 3.12548Z" />
</svg>
