<svg width="324" height="194" viewBox="0 0 324 194" fill="none" xmlns="http://www.w3.org/2000/svg">
<g clip-path="url(#clip0_11_293)">
<path d="M248.062 191.806C243.914 188.296 241.394 182.75 242.055 177.352C242.716 171.953 246.809 166.991 252.117 165.844C257.426 164.698 263.477 167.871 265.09 173.065C265.977 163.052 267 152.619 272.315 144.092C277.128 136.371 285.465 130.846 294.5 129.858C303.534 128.87 313.047 132.602 318.681 139.744C324.316 146.886 325.696 157.269 321.749 165.468C318.842 171.508 313.486 176.004 307.874 179.661C289.741 191.378 267.992 196.144 246.63 193.079L248.062 191.806Z" fill="#FFF0F0"/>
<path d="M309.747 132.809C302.292 138.89 295.453 145.692 289.329 153.115C279.744 164.692 271.989 177.673 266.332 191.604C265.917 192.62 267.565 193.063 267.975 192.058C277.231 169.417 292.007 149.461 310.952 134.016C311.803 133.322 310.591 132.121 309.747 132.809Z" fill="white"/>
<path d="M104.301 190.853C109.998 186.031 113.459 178.414 112.551 171C111.644 163.585 106.023 156.768 98.7312 155.194C91.4397 153.619 83.128 157.978 80.9133 165.111C79.6945 151.358 78.29 137.029 70.9891 125.317C64.3783 114.712 52.9283 107.124 40.5191 105.767C28.1098 104.409 15.0445 109.536 7.30529 119.346C-0.433898 129.155 -2.32881 143.415 3.09152 154.677C7.08449 162.974 14.4409 169.148 22.1487 174.171C46.739 190.196 77.2432 196.879 106.268 192.601" fill="#FFF0F0"/>
<path d="M19.5766 109.82C29.8158 118.173 39.2091 127.514 47.6208 137.71C56.0338 147.895 63.4405 158.874 69.737 170.491C73.2564 177.008 76.418 183.713 79.2076 190.575C79.7764 191.971 77.5131 192.578 76.9507 191.198C72.0095 179.1 65.8964 167.516 58.699 156.613C51.5366 145.749 43.3388 135.606 34.2207 126.328C29.0636 121.082 23.6223 116.125 17.9216 111.478C16.7531 110.525 18.4178 108.875 19.5766 109.82L19.5766 109.82Z" fill="white"/>
<path d="M232.572 193.575H96.6414V53.8953C96.6414 24.1773 120.782 0 150.455 0H178.759C208.432 0 232.572 24.1773 232.572 53.8953V193.575Z" fill="#FFF0F0"/>
<path d="M204.269 193.575H96.6413V53.8953C96.6116 42.508 100.212 31.4085 106.918 22.2129C107.166 21.8755 107.412 21.5424 107.666 21.2129C110.91 16.952 114.77 13.1996 119.12 10.0793C119.365 9.9003 119.612 9.72438 119.862 9.54846C123.502 7.02617 127.438 4.96424 131.583 3.40962C131.829 3.31619 132.08 3.22258 132.33 3.1328C136.079 1.79309 139.964 0.875395 143.915 0.396661C144.16 0.363149 144.412 0.336925 144.663 0.310701C148.514 -0.101614 152.397 -0.101614 156.248 0.310701C156.498 0.336925 156.75 0.363146 156.998 0.39702C160.948 0.875785 164.832 1.79337 168.58 3.13281C168.83 3.2226 169.081 3.3162 169.328 3.40981C173.421 4.94483 177.312 6.97598 180.912 9.45795C181.163 9.63005 181.413 9.80598 181.66 9.9819C184.097 11.7247 186.387 13.6663 188.506 15.7869C190.205 17.4879 191.788 19.301 193.245 21.214C193.498 21.5424 193.745 21.8755 193.991 22.2124C200.698 31.4081 204.299 42.5078 204.269 53.8953V193.575Z" fill="#FFB8B8"/>
<path d="M195.517 131.102C198.808 131.102 201.476 128.43 201.476 125.134C201.476 121.838 198.808 119.167 195.517 119.167C192.226 119.167 189.559 121.838 189.559 125.134C189.559 128.43 192.226 131.102 195.517 131.102Z" fill="#DE496E"/>
<path d="M221.437 189.392H216.871L214.699 171.754L221.438 171.755L221.437 189.392Z" fill="#FFB8B8"/>
<path d="M213.61 188.085H222.415V193.637H208.066C208.066 192.908 208.209 192.186 208.488 191.513C208.766 190.839 209.175 190.227 209.69 189.711C210.204 189.196 210.815 188.787 211.488 188.508C212.161 188.229 212.882 188.085 213.61 188.085V188.085Z" fill="#2F2E41"/>
<path d="M244.154 189.392H239.588L237.416 171.754L244.155 171.755L244.154 189.392Z" fill="#FFB8B8"/>
<path d="M236.327 188.085H245.132V193.637H230.783C230.783 192.908 230.926 192.186 231.205 191.513C231.484 190.839 231.892 190.227 232.407 189.711C232.922 189.196 233.533 188.787 234.205 188.508C234.878 188.229 235.599 188.085 236.327 188.085V188.085Z" fill="#2F2E41"/>
<path d="M198.533 126.316C198.205 125.832 197.986 125.281 197.893 124.702C197.8 124.124 197.835 123.532 197.995 122.969C198.156 122.406 198.437 121.884 198.82 121.442C199.203 120.999 199.679 120.646 200.213 120.407L215.733 77.5645L223.371 81.7386L205.649 122.681C205.99 123.606 205.981 124.624 205.622 125.543C205.263 126.461 204.581 127.216 203.704 127.664C202.826 128.112 201.816 128.223 200.863 127.974C199.91 127.726 199.081 127.136 198.533 126.316V126.316Z" fill="#FFB8B8"/>
<path d="M241.822 134.366C241.314 134.075 240.877 133.676 240.54 133.197C240.204 132.718 239.976 132.171 239.873 131.594C239.77 131.017 239.795 130.425 239.946 129.859C240.096 129.293 240.369 128.767 240.744 128.318L235.936 82.9976L244.628 83.3952L246.626 127.974C247.337 128.655 247.774 129.575 247.854 130.558C247.934 131.541 247.651 132.519 247.059 133.307C246.467 134.095 245.607 134.638 244.641 134.833C243.676 135.028 242.673 134.862 241.822 134.366V134.366Z" fill="#FFB8B8"/>
<path d="M227.957 69.6286C233.008 69.6286 237.104 65.5272 237.104 60.4678C237.104 55.4085 233.008 51.3071 227.957 51.3071C222.905 51.3071 218.81 55.4085 218.81 60.4678C218.81 65.5272 222.905 69.6286 227.957 69.6286Z" fill="#FFB8B8"/>
<path d="M241.763 124.059H214.187L214.22 123.844C214.27 123.523 219.135 91.6046 215.547 81.1624C215.187 80.1362 215.218 79.0129 215.636 78.0087C216.053 77.0045 216.827 76.1904 217.807 75.7231H217.807C222.936 73.3042 232.781 70.3256 241.091 77.5541C242.313 78.6353 243.268 79.9866 243.88 81.5011C244.491 83.0156 244.742 84.6518 244.613 86.2803L241.763 124.059Z" fill="#DE496E"/>
<path d="M219.484 96.3218L207.069 93.7992L212.888 79.988C213.236 78.6503 214.1 77.5055 215.29 76.8048C216.48 76.1041 217.899 75.9047 219.235 76.2502C220.572 76.5958 221.717 77.4581 222.419 78.6481C223.122 79.8381 223.324 81.2585 222.983 82.5979L219.484 96.3218Z" fill="#DE496E"/>
<path d="M235.384 101.005L234.638 83.8704C234.072 80.6492 235.913 77.6042 238.745 77.1065C241.577 76.6106 244.343 78.8446 244.911 82.0894L247.717 98.1005L235.384 101.005Z" fill="#DE496E"/>
<path d="M240.846 122.008C245.283 138.932 245.767 160.45 244.57 183.922L238.612 183.176L227.812 138.419L221.853 183.922L215.15 183.549C213.147 158.922 211.197 137.779 214.405 123.873L240.846 122.008Z" fill="#2F2E41"/>
<path d="M233.983 67.5477C232.277 69.3681 229.108 68.3908 228.886 65.9039C228.868 65.7108 228.87 65.5165 228.89 65.3237C229.004 64.222 229.64 63.2219 229.488 62.0588C229.453 61.7693 229.345 61.4934 229.175 61.2573C227.815 59.4337 224.623 62.0729 223.34 60.4221C222.553 59.4098 223.478 57.816 222.874 56.6846C222.077 55.1914 219.716 55.928 218.236 55.1102C216.589 54.2004 216.687 51.6694 217.772 50.13C219.094 48.2526 221.412 47.2508 223.702 47.1064C225.991 46.962 228.265 47.5818 230.402 48.4161C232.831 49.3639 235.239 50.6739 236.733 52.8126C238.551 55.4134 238.726 58.91 237.817 61.9512C237.264 63.8012 235.377 66.0611 233.983 67.5477Z" fill="#2F2E41"/>
<path d="M312.821 193.815H37.8699C37.7525 193.815 37.64 193.768 37.5572 193.685C37.4743 193.602 37.4277 193.489 37.4277 193.371C37.4277 193.254 37.4743 193.141 37.5572 193.058C37.64 192.975 37.7525 192.928 37.8699 192.927H312.821C312.938 192.928 313.051 192.975 313.133 193.058C313.216 193.141 313.263 193.254 313.263 193.371C313.263 193.489 313.216 193.602 313.133 193.685C313.051 193.768 312.938 193.815 312.821 193.815V193.815Z" fill="#3F3D56"/>
<path d="M174.662 153.107H126.248C125.611 153.111 124.998 152.861 124.544 152.412C124.09 151.964 123.833 151.353 123.828 150.715V42.488C123.833 41.8495 124.09 41.2389 124.544 40.7904C124.998 40.3418 125.611 40.0918 126.248 40.0952H174.662C175.3 40.0918 175.913 40.3418 176.366 40.7904C176.82 41.2389 177.078 41.8495 177.083 42.488V150.715C177.078 151.353 176.82 151.964 176.366 152.412C175.913 152.861 175.3 153.111 174.662 153.107V153.107Z" fill="white"/>
<path d="M177.083 75.1138H123.828V75.8597H177.083V75.1138Z" fill="#CCCCCC"/>
<path d="M177.269 117.674H124.014V118.42H177.269V117.674Z" fill="#CCCCCC"/>
<path d="M141.331 40.0952H140.586V153.48H141.331V40.0952Z" fill="#CCCCCC"/>
<path d="M159.952 40.0952H159.207V153.48H159.952V40.0952Z" fill="#CCCCCC"/>
</g>
<defs>
<clipPath id="clip0_11_293">
<rect width="324" height="194" fill="white"/>
</clipPath>
</defs>
</svg>
