<svg width="20" height="20" viewBox="0 0 20 20" xmlns="http://www.w3.org/2000/svg">
<path fill-rule="evenodd" clip-rule="evenodd" d="M3 2C2.73478 2 2.48043 2.10536 2.29289 2.29289C2.10536 2.48043 2 2.73478 2 3V17C2 17.2652 2.10536 17.5196 2.29289 17.7071C2.48043 17.8946 2.73478 18 3 18H17C17.2652 18 17.5196 17.8946 17.7071 17.7071C17.8946 17.5196 18 17.2652 18 17V6.41421L13.5858 2H3ZM0.87868 0.87868C1.44129 0.31607 2.20435 0 3 0H14C14.2652 0 14.5196 0.105357 14.7071 0.292893L19.7071 5.29289C19.8946 5.48043 20 5.73478 20 6V17C20 17.7957 19.6839 18.5587 19.1213 19.1213C18.5587 19.6839 17.7957 20 17 20H3C2.20435 20 1.44129 19.6839 0.87868 19.1213C0.31607 18.5587 0 17.7957 0 17V3C0 2.20435 0.31607 1.44129 0.87868 0.87868Z" />
<path fill-rule="evenodd" clip-rule="evenodd" d="M4 11C4 10.4477 4.44772 10 5 10H15C15.5523 10 16 10.4477 16 11V19C16 19.5523 15.5523 20 15 20C14.4477 20 14 19.5523 14 19V12H6V19C6 19.5523 5.55228 20 5 20C4.44772 20 4 19.5523 4 19V11Z" />
<path fill-rule="evenodd" clip-rule="evenodd" d="M5 0C5.55228 0 6 0.447715 6 1V5H13C13.5523 5 14 5.44772 14 6C14 6.55228 13.5523 7 13 7H5C4.44772 7 4 6.55228 4 6V1C4 0.447715 4.44772 0 5 0Z" />
</svg>
